<svg id="visual" viewBox="0 0 900 600" width="900" height="600" xmlns="http://www.w3.org/2000/svg" xmlns:xlink="http://www.w3.org/1999/xlink" version="1.1"><path d="M0 497L21.5 499.8C43 502.7 86 508.3 128.8 507.7C171.7 507 214.3 500 257.2 497.3C300 494.7 343 496.3 385.8 499.8C428.7 503.3 471.3 508.7 514.2 513.3C557 518 600 522 642.8 521.8C685.7 521.7 728.3 517.3 771.2 513.8C814 510.3 857 507.7 878.5 506.3L900 505L900 601L878.5 601C857 601 814 601 771.2 601C728.3 601 685.7 601 642.8 601C600 601 557 601 514.2 601C471.3 601 428.7 601 385.8 601C343 601 300 601 257.2 601C214.3 601 171.7 601 128.8 601C86 601 43 601 21.5 601L0 601Z" fill="#ffffff" stroke-linecap="round" stroke-linejoin="miter"></path></svg>